<svg xmlns="http://www.w3.org/2000/svg" xmlns:xlink="http://www.w3.org/1999/xlink" width="500" zoomAndPan="magnify" viewBox="0 0 375 374.999991" height="500" preserveAspectRatio="xMidYMid meet" version="1.0"><defs><clipPath id="93ce052852"><path d="M 142 123.125 L 206 123.125 L 206 264.125 L 142 264.125 Z M 142 123.125 " clip-rule="nonzero"/></clipPath><clipPath id="96346d08cd"><path d="M 212.398438 212.042969 L 268.648438 212.042969 L 268.648438 268.292969 L 212.398438 268.292969 Z M 212.398438 212.042969 " clip-rule="nonzero"/></clipPath><clipPath id="c042895a70"><path d="M 212.398438 213.785156 L 260.398438 213.785156 L 260.398438 261.785156 L 212.398438 261.785156 Z M 212.398438 213.785156 " clip-rule="nonzero"/></clipPath><clipPath id="0bfa41138a"><path d="M 212.398438 212.042969 L 264.148438 212.042969 L 264.148438 263.792969 L 212.398438 263.792969 Z M 212.398438 212.042969 " clip-rule="nonzero"/></clipPath></defs><rect x="-37.5" width="450" fill="#ffffff" y="-37.499999" height="449.999989" fill-opacity="1"/><rect x="-37.5" width="450" fill="#ffffff" y="-37.499999" height="449.999989" fill-opacity="1"/><path fill="#ff5757" d="M 374.257812 134.382812 L 286.765625 188.753906 L 374.894531 242.066406 L 271.90625 240.507812 L 317.21875 333.007812 L 231.421875 276.011719 L 219.539062 378.332031 L 178.1875 283.976562 L 112.875 363.628906 L 129.078125 261.90625 L 31.078125 293.597656 L 99.707031 216.785156 L 0.121094 190.464844 L 99.378906 162.949219 L 29.835938 86.96875 L 128.21875 117.480469 L 110.792969 15.960938 L 177.054688 94.824219 L 217.289062 0 L 230.394531 102.167969 L 315.5 44.144531 L 271.292969 137.175781 Z M 374.257812 134.382812 " fill-opacity="1" fill-rule="nonzero"/><g clip-path="url(#93ce052852)"><path fill="#000000" d="M 189.910156 123.125 L 142.386719 123.125 L 142.386719 248.925781 L 157.6875 264.183594 L 205.210938 264.183594 L 205.210938 138.382812 Z M 189.910156 123.125 " fill-opacity="1" fill-rule="nonzero"/></g><path fill="#ffffff" d="M 148.507812 129.226562 L 183.792969 129.226562 L 183.792969 242.820312 L 148.507812 242.820312 Z M 148.507812 129.226562 " fill-opacity="1" fill-rule="nonzero"/><g clip-path="url(#96346d08cd)"><path fill="#000000" d="M 268.847656 240.269531 C 268.847656 241.195312 268.804688 242.117188 268.714844 243.035156 C 268.621094 243.957031 268.488281 244.867188 268.308594 245.773438 C 268.125 246.683594 267.902344 247.578125 267.632812 248.460938 C 267.367188 249.347656 267.054688 250.214844 266.699219 251.070312 C 266.347656 251.925781 265.953125 252.757812 265.515625 253.574219 C 265.082031 254.390625 264.605469 255.179688 264.09375 255.949219 C 263.578125 256.71875 263.027344 257.460938 262.441406 258.175781 C 261.855469 258.890625 261.234375 259.574219 260.582031 260.226562 C 259.929688 260.878906 259.246094 261.5 258.53125 262.085938 C 257.816406 262.671875 257.074219 263.222656 256.304688 263.738281 C 255.535156 264.25 254.746094 264.726562 253.929688 265.160156 C 253.113281 265.597656 252.28125 265.992188 251.425781 266.34375 C 250.570312 266.699219 249.703125 267.011719 248.816406 267.277344 C 247.933594 267.546875 247.039062 267.769531 246.132812 267.953125 C 245.222656 268.132812 244.3125 268.265625 243.390625 268.359375 C 242.472656 268.449219 241.550781 268.492188 240.625 268.492188 C 239.699219 268.492188 238.777344 268.449219 237.859375 268.359375 C 236.9375 268.265625 236.023438 268.132812 235.117188 267.953125 C 234.210938 267.769531 233.316406 267.546875 232.429688 267.277344 C 231.546875 267.011719 230.675781 266.699219 229.824219 266.34375 C 228.96875 265.992188 228.136719 265.597656 227.320312 265.160156 C 226.503906 264.726562 225.710938 264.25 224.945312 263.738281 C 224.175781 263.222656 223.433594 262.671875 222.71875 262.085938 C 222.003906 261.5 221.320312 260.878906 220.667969 260.226562 C 220.011719 259.574219 219.394531 258.890625 218.808594 258.175781 C 218.21875 257.460938 217.671875 256.71875 217.15625 255.949219 C 216.644531 255.179688 216.167969 254.390625 215.734375 253.574219 C 215.296875 252.757812 214.902344 251.925781 214.546875 251.070312 C 214.195312 250.214844 213.882812 249.347656 213.617188 248.460938 C 213.347656 247.578125 213.121094 246.683594 212.941406 245.773438 C 212.761719 244.867188 212.625 243.957031 212.535156 243.035156 C 212.445312 242.117188 212.398438 241.195312 212.398438 240.269531 C 212.398438 239.34375 212.445312 238.421875 212.535156 237.503906 C 212.625 236.582031 212.761719 235.667969 212.941406 234.761719 C 213.121094 233.855469 213.347656 232.960938 213.617188 232.074219 C 213.882812 231.191406 214.195312 230.320312 214.546875 229.46875 C 214.902344 228.613281 215.296875 227.777344 215.734375 226.964844 C 216.167969 226.148438 216.644531 225.355469 217.15625 224.589844 C 217.671875 223.820312 218.21875 223.078125 218.808594 222.363281 C 219.394531 221.648438 220.011719 220.964844 220.667969 220.3125 C 221.320312 219.65625 222.003906 219.039062 222.71875 218.449219 C 223.433594 217.863281 224.175781 217.316406 224.945312 216.800781 C 225.710938 216.289062 226.503906 215.8125 227.320312 215.378906 C 228.136719 214.941406 228.96875 214.546875 229.824219 214.191406 C 230.675781 213.839844 231.546875 213.527344 232.429688 213.257812 C 233.316406 212.992188 234.210938 212.765625 235.117188 212.585938 C 236.023438 212.40625 236.9375 212.269531 237.859375 212.179688 C 238.777344 212.089844 239.699219 212.042969 240.625 212.042969 C 241.550781 212.042969 242.472656 212.089844 243.390625 212.179688 C 244.3125 212.269531 245.222656 212.40625 246.132812 212.585938 C 247.039062 212.765625 247.933594 212.992188 248.816406 213.257812 C 249.703125 213.527344 250.570312 213.839844 251.425781 214.191406 C 252.28125 214.546875 253.113281 214.941406 253.929688 215.378906 C 254.746094 215.8125 255.535156 216.289062 256.304688 216.800781 C 257.074219 217.316406 257.816406 217.863281 258.53125 218.449219 C 259.246094 219.039062 259.929688 219.65625 260.582031 220.3125 C 261.234375 220.964844 261.855469 221.648438 262.441406 222.363281 C 263.027344 223.078125 263.578125 223.820312 264.09375 224.589844 C 264.605469 225.355469 265.082031 226.148438 265.515625 226.964844 C 265.953125 227.777344 266.347656 228.613281 266.699219 229.46875 C 267.054688 230.320312 267.367188 231.191406 267.632812 232.074219 C 267.902344 232.960938 268.125 233.855469 268.308594 234.761719 C 268.488281 235.667969 268.621094 236.582031 268.714844 237.503906 C 268.804688 238.421875 268.847656 239.34375 268.847656 240.269531 Z M 268.847656 240.269531 " fill-opacity="1" fill-rule="nonzero"/></g><g clip-path="url(#c042895a70)"><path fill="#ffffff" d="M 260.398438 237.785156 C 260.398438 238.570312 260.363281 239.355469 260.285156 240.136719 C 260.207031 240.921875 260.09375 241.695312 259.9375 242.46875 C 259.785156 243.238281 259.59375 244 259.367188 244.753906 C 259.136719 245.503906 258.875 246.242188 258.574219 246.96875 C 258.273438 247.695312 257.9375 248.40625 257.566406 249.097656 C 257.195312 249.792969 256.792969 250.464844 256.355469 251.117188 C 255.917969 251.773438 255.449219 252.402344 254.953125 253.011719 C 254.453125 253.617188 253.925781 254.199219 253.371094 254.757812 C 252.816406 255.3125 252.234375 255.839844 251.625 256.335938 C 251.019531 256.835938 250.386719 257.304688 249.734375 257.742188 C 249.082031 258.175781 248.40625 258.582031 247.714844 258.953125 C 247.019531 259.320312 246.3125 259.65625 245.585938 259.957031 C 244.859375 260.257812 244.121094 260.523438 243.367188 260.75 C 242.613281 260.980469 241.851562 261.171875 241.082031 261.324219 C 240.3125 261.476562 239.535156 261.59375 238.753906 261.667969 C 237.96875 261.746094 237.1875 261.785156 236.398438 261.785156 C 235.613281 261.785156 234.828125 261.746094 234.046875 261.667969 C 233.265625 261.59375 232.488281 261.476562 231.71875 261.324219 C 230.945312 261.171875 230.183594 260.980469 229.433594 260.75 C 228.679688 260.523438 227.941406 260.257812 227.214844 259.957031 C 226.488281 259.65625 225.78125 259.320312 225.085938 258.953125 C 224.394531 258.582031 223.71875 258.175781 223.066406 257.742188 C 222.414062 257.304688 221.78125 256.835938 221.175781 256.335938 C 220.566406 255.839844 219.984375 255.3125 219.429688 254.757812 C 218.875 254.199219 218.347656 253.617188 217.847656 253.011719 C 217.347656 252.402344 216.882812 251.773438 216.445312 251.117188 C 216.007812 250.464844 215.605469 249.792969 215.234375 249.097656 C 214.863281 248.40625 214.527344 247.695312 214.226562 246.96875 C 213.925781 246.242188 213.660156 245.503906 213.433594 244.753906 C 213.207031 244 213.015625 243.238281 212.859375 242.46875 C 212.707031 241.695312 212.59375 240.921875 212.515625 240.136719 C 212.4375 239.355469 212.398438 238.570312 212.398438 237.785156 C 212.398438 237 212.4375 236.214844 212.515625 235.433594 C 212.59375 234.652344 212.707031 233.875 212.859375 233.101562 C 213.015625 232.332031 213.207031 231.570312 213.433594 230.820312 C 213.660156 230.066406 213.925781 229.328125 214.226562 228.601562 C 214.527344 227.875 214.863281 227.164062 215.234375 226.472656 C 215.605469 225.777344 216.007812 225.105469 216.445312 224.453125 C 216.882812 223.796875 217.347656 223.167969 217.847656 222.558594 C 218.347656 221.953125 218.875 221.371094 219.429688 220.816406 C 219.984375 220.257812 220.566406 219.730469 221.175781 219.234375 C 221.78125 218.734375 222.414062 218.265625 223.066406 217.828125 C 223.71875 217.394531 224.394531 216.988281 225.085938 216.621094 C 225.78125 216.25 226.488281 215.914062 227.214844 215.613281 C 227.941406 215.3125 228.679688 215.046875 229.433594 214.820312 C 230.183594 214.589844 230.945312 214.398438 231.71875 214.246094 C 232.488281 214.09375 233.265625 213.976562 234.046875 213.902344 C 234.828125 213.824219 235.613281 213.785156 236.398438 213.785156 C 237.1875 213.785156 237.96875 213.824219 238.753906 213.902344 C 239.535156 213.976562 240.3125 214.09375 241.082031 214.246094 C 241.851562 214.398438 242.613281 214.589844 243.367188 214.820312 C 244.121094 215.046875 244.859375 215.3125 245.585938 215.613281 C 246.3125 215.914062 247.019531 216.25 247.714844 216.621094 C 248.40625 216.988281 249.082031 217.394531 249.734375 217.828125 C 250.386719 218.265625 251.019531 218.734375 251.625 219.234375 C 252.234375 219.730469 252.816406 220.257812 253.371094 220.816406 C 253.925781 221.371094 254.453125 221.953125 254.953125 222.558594 C 255.449219 223.167969 255.917969 223.796875 256.355469 224.453125 C 256.792969 225.105469 257.195312 225.777344 257.566406 226.472656 C 257.9375 227.164062 258.273438 227.875 258.574219 228.601562 C 258.875 229.328125 259.136719 230.066406 259.367188 230.820312 C 259.59375 231.570312 259.785156 232.332031 259.9375 233.101562 C 260.09375 233.875 260.207031 234.652344 260.285156 235.433594 C 260.363281 236.214844 260.398438 237 260.398438 237.785156 Z M 260.398438 237.785156 " fill-opacity="1" fill-rule="nonzero"/></g><g clip-path="url(#0bfa41138a)"><path fill="#000000" d="M 238.273438 263.792969 C 223.980469 263.792969 212.398438 252.132812 212.398438 237.917969 C 212.398438 223.703125 223.980469 212.042969 238.273438 212.042969 C 252.570312 212.042969 264.148438 223.625 264.148438 237.917969 C 264.148438 252.214844 252.492188 263.792969 238.273438 263.792969 Z M 238.273438 213.640625 C 224.859375 213.640625 213.996094 224.503906 213.996094 237.917969 C 213.996094 251.335938 224.859375 262.195312 238.273438 262.195312 C 251.691406 262.195312 262.554688 251.335938 262.554688 237.917969 C 262.554688 224.503906 251.613281 213.640625 238.273438 213.640625 Z M 238.273438 213.640625 " fill-opacity="1" fill-rule="nonzero"/></g></svg>